<?xml version="1.0" encoding="UTF-8" standalone="no"?>
<!-- Created with Inkscape (http://www.inkscape.org/) -->

<svg
   xmlns:dc="http://purl.org/dc/elements/1.1/"
   xmlns:cc="http://creativecommons.org/ns#"
   xmlns:rdf="http://www.w3.org/1999/02/22-rdf-syntax-ns#"
   xmlns:svg="http://www.w3.org/2000/svg"
   xmlns="http://www.w3.org/2000/svg"
   version="1.1"
   width="188.92395"
   height="166.44051"
   id="svg2">
  <defs
     id="defs4" />
  <metadata
     id="metadata7">
    <rdf:RDF>
      <cc:Work
         rdf:about="">
        <dc:format>image/svg+xml</dc:format>
        <dc:type
           rdf:resource="http://purl.org/dc/dcmitype/StillImage" />
        <dc:title></dc:title>
      </cc:Work>
    </rdf:RDF>
  </metadata>
  <g
     transform="translate(10.148928,-896.17737)"
     id="layer1"
     style="display:none">
    <path
       d="m 146.06245,971.4375 c -1.3e-4,-2.4e-4 0.0268,0.0199 0.0312,0.0312 -0.002,-0.01 1.2e-4,-0.0309 0,-0.0312 -6e-5,-1.8e-4 -0.0264,0.0108 -0.0312,0 z"
       id="path3192"
       style="font-size:medium;font-style:normal;font-variant:normal;font-weight:normal;font-stretch:normal;text-indent:0;text-align:start;text-decoration:none;line-height:normal;letter-spacing:normal;word-spacing:normal;text-transform:none;direction:ltr;block-progression:tb;writing-mode:lr-tb;text-anchor:start;baseline-shift:baseline;color:#000000;fill:#000000;fill-opacity:1;fill-rule:nonzero;stroke:none;stroke-width:0.54109031;marker:none;visibility:visible;display:inline;overflow:visible;enable-background:accumulate;font-family:Sans;-inkscape-font-specification:Sans" />
  </g>
  <g
     transform="translate(10.148929,-45.972362)"
     id="layer3"
     style="display:inline">
    <path
       d="m 157.44399,906.19398 -0.28125,0.0312 c -2.18128,0.11754 -4.66163,0.54954 -6.8125,1.28125 -2.23923,0.76177 -4.13942,1.80519 -4.9375,3.1875 L 65.728715,1048.5958 c -0.253562,0.4392 -0.275053,0.8865 -0.0625,1.25 0.205732,0.3518 0.595096,0.5941 1.0625,0.7813 0.0155,0.01 0.01555,0.025 0.03125,0.031 0.09941,0.3311 0.220763,0.6751 0.5625,0.875 0.444258,0.2599 1.040321,0.4376 1.75,0.5625 1.419358,0.2499 3.303383,0.2766 5.21875,0.1563 1.915367,-0.1202 3.875124,-0.4006 5.4375,-0.7813 0.781188,-0.1903 1.460695,-0.414 2,-0.6562 0.539305,-0.2422 0.948909,-0.4847 1.15625,-0.8438 l 45.499995,-78.81224 c 2.15238,-0.0104 5.2523,-0.25627 8.25,-0.375 3.06569,-0.12142 6.01669,-0.0837 7.5,0.375 0.60728,0.18782 1.06628,0.4029 1.46875,0.65625 0.33313,0.57752 0.42826,1.26071 0.28125,2.0625 -0.14701,0.80179 -0.54406,1.71253 -1.125,2.71875 l -36.6875,63.56244 c -0.94812,1.6422 -1.27431,3.0958 -1.0625,4.375 0.20829,1.2579 0.97764,2.3193 2.0625,3.1875 0.0121,0.015 0.019,0.047 0.0312,0.062 1.22506,1.5359 3.37915,2.6303 6.0625,3.375 2.72048,0.755 5.98847,1.1694 9.375,1.3125 6.77306,0.2863 14.0466,-0.5141 18.4375,-1.8125 7.13983,-2.1113 14.10806,-6.0969 17.46875,-9.2187 3.42261,-3.1793 6.07886,-6.4525 7.40625,-9.2813 0.6637,-1.4144 0.99868,-2.7134 0.90625,-3.8437 -0.0887,-1.0852 -0.63947,-2.0077 -1.59375,-2.625 -0.0219,-0.036 -0.0705,-0.059 -0.0937,-0.094 -0.78165,-1.177 -2.31721,-1.893 -4.8125,-1.9375 -4.18278,-0.074 -7.07008,1.3711 -9.125,3.4688 -2.05492,2.0978 -3.28274,4.8412 -4.28125,7.3437 -2.25237,5.6449 -7.34399,9.4443 -12.46875,11.4375 -2.56238,0.9966 -5.12587,1.5263 -7.34375,1.625 -2.18529,0.097 -4.01879,-0.2516 -5.15625,-0.9687 -0.44158,-0.8725 -0.39035,-2.0203 0.5,-3.5625 l 35.96875,-62.24999 c 1.13041,-1.95792 1.42077,-3.78041 1.0625,-5.4375 -0.35827,-1.65709 -1.35945,-3.11944 -2.75,-4.40625 -0.0805,-0.0744 -0.19357,-0.2039 -0.3125,-0.3125 -0.009,-0.0103 -0.022,-0.0209 -0.0312,-0.0312 -1.70969,-1.89074 -4.26661,-3.42515 -7.125,-4.625 -2.00878,-0.84316 -5.42876,-1.25675 -9.0625,-1.5 -3.47685,-0.23275 -7.03461,-0.27181 -9.6875,-0.28125 l 31.18403,-53.87063 c 0.32032,-0.55481 0.38966,-1.09424 0.1875,-1.53125 -0.19305,-0.41732 -0.60056,-0.71761 -1.09375,-0.9375 -0.0233,-0.0104 -0.0388,-0.0213 -0.0625,-0.0312 -0.0914,-0.26898 -0.17327,-0.53148 -0.40625,-0.71875 -0.30862,-0.24807 -0.70908,-0.42833 -1.1875,-0.5625 -0.95684,-0.26834 -2.21324,-0.3713 -3.625,-0.3125 z m -51.71528,57.96438 c -4.14768,0 -11.660848,0.59954 -19.031245,2.71875 -7.370397,2.11921 -14.612815,5.75212 -18.09375,11.78125 l -35.78125,61.93744 c -3.289237,5.6971 -11.623386,8.8993 -17.59375,6.1875 -0.681312,-0.3094 -1.263411,-0.7046 -1.78125,-1.125 -1.041406,-1.4673 -1.151253,-3.329 0.15625,-5.5937 0.603279,-1.0449 1.85574,-2.7016 3.03125,-4.5 1.17551,-1.7985 2.287691,-3.7316 2.6875,-5.4063 0.186191,-0.7799 0.01665,-1.5573 -0.375,-2.25 -0.38461,-0.6803 -0.971759,-1.2808 -1.625,-1.7812 -0.0093,-0.011 -0.02187,-0.02 -0.03125,-0.031 -1.193984,-1.4172 -3.131351,-2.4375 -4.5,-2.4375 -2.122868,0 -3.6441478,0.018 -5.0312493,0.3438 -1.3871015,0.326 -2.5963266,0.9611 -4.0625,2.1875 -1.6938579,1.4166 -2.677768,3.6568 -3.21875007,5.9687 -0.540982,2.3119 -0.6468882,4.7231 -0.625,6.4688 0.0422222,3.3678 1.59103287,6.0041 3.93750007,8 l 0,0.031 c 3.0073009,3.2375 7.9192713,5.034 12.7187493,5.6563 4.00847,0.5196 10.869392,0.5228 17.6875,-1.2188 6.818108,-1.7416 13.611685,-5.2318 17.375,-11.75 l 34.34375,-59.62494 c 2.445953,-4.23645 9.903848,-8.5625 20.562495,-8.5625 1.02619,0 1.72355,-0.19026 2.15625,-0.625 0.4327,-0.43474 0.52896,-1.0595 0.53125,-1.8125 0.002,-0.62871 -0.0364,-1.31925 -0.25,-1.9375 -0.18879,-0.54652 -0.58603,-0.97326 -1.125,-1.25 -0.30531,-0.77389 -0.98754,-1.375 -2.0625,-1.375 z"
       transform="translate(-1e-6,-850.20501)"
       id="path3196"
       style="font-size:medium;font-style:normal;font-variant:normal;font-weight:normal;font-stretch:normal;text-indent:0;text-align:start;text-decoration:none;line-height:normal;letter-spacing:normal;word-spacing:normal;text-transform:none;direction:ltr;block-progression:tb;writing-mode:lr-tb;text-anchor:start;baseline-shift:baseline;color:#000000;fill:#162d50;fill-opacity:1;fill-rule:nonzero;stroke:none;stroke-width:0.54109031;marker:none;visibility:visible;display:inline;overflow:visible;enable-background:accumulate;font-family:Sans;-inkscape-font-specification:Sans" />
    <path
       d="m 157.47814,56.173741 c -4.43102,0.18457 -10.37474,1.88526 -11.84089,4.420597 L 65.85505,198.55708 c -2.068708,3.5773 14.343869,2.22747 15.629968,0 l 45.574252,-78.93924 c 4.2689,0 12.8505,-0.97354 15.99835,0 3.65214,1.12949 3.80594,3.58338 1.89454,6.89403 l -36.73306,63.57239 c -7.11923,12.33086 22.5438,12.29819 33.52287,9.0517 7.09665,-2.09848 14.05916,-6.13722 17.36663,-9.20957 8.28719,-7.69791 12.04707,-16.0482 3.05231,-16.20886 -8.23773,-0.14651 -11.11405,5.64338 -13.10391,10.63048 -6.00741,15.05597 -31.77734,17.12994 -26.04995,7.20979 l 35.94367,-62.20412 c 3.53388,-6.1208 -1.42965,-10.63149 -7.94655,-13.36704 -4.2721,-1.79316 -16.10357,-1.78929 -20.78733,-1.78929 l 32.10291,-55.444928 c 1.13894,-1.972714 -1.39526,-2.722229 -4.84161,-2.578681 z m -51.78509,58.023609 c -8.240415,0 -30.045174,2.5098 -36.890936,14.36694 l -35.785785,61.94098 c -3.365403,5.82896 -11.817246,9.09869 -17.94552,6.31514 -3.45488,-1.56918 -4.991814,-4.43314 -2.841813,-8.15705 1.240871,-2.14934 4.916133,-6.62627 5.683626,-9.84109 0.610124,-2.55553 -3.184483,-5.10474 -5.157364,-5.10474 -4.243398,0 -6.055218,0.0551 -8.946447,2.47343 -3.247641,2.71618 -3.779836,8.74941 -3.736457,12.20927 0.09449,7.53657 7.839646,11.39815 15.314212,12.36714 7.938883,1.02929 27.358306,0.0241 34.78589,-12.84078 l 34.364879,-59.62543 c 2.523967,-4.37159 10.05621,-8.68332 20.787335,-8.68332 1.98847,0 2.41639,-0.70451 2.4208,-2.15767 0.005,-1.44844 -0.22588,-3.26282 -2.05242,-3.26282 z"
       id="path3025"
       style="fill:#5f8dd3;stroke:none;filter:url(#filter3324)" />
    <path
       d="m 157.47814,56.173741 c -4.43102,0.18457 -10.37474,1.88526 -11.84089,4.420597 L 65.85505,198.55708 c -2.068708,3.5773 14.343869,2.22747 15.629968,0 l 45.574252,-78.93924 c 4.2689,0 12.8505,-0.97354 15.99835,0 3.65214,1.12949 3.80594,3.58338 1.89454,6.89403 l -36.73306,63.57239 c -7.11923,12.33086 22.5438,12.29819 33.52287,9.0517 7.09665,-2.09848 14.05916,-6.13722 17.36663,-9.20957 8.28719,-7.69791 12.04707,-16.0482 3.05231,-16.20886 -8.23773,-0.14651 -11.11405,5.64338 -13.10391,10.63048 -6.00741,15.05597 -31.77734,17.12994 -26.04995,7.20979 l 35.94367,-62.20412 c 3.53388,-6.1208 -1.42965,-10.63149 -7.94655,-13.36704 -4.2721,-1.79316 -16.10357,-1.78929 -20.78733,-1.78929 l 32.10291,-55.444928 c 1.13894,-1.972714 -1.39526,-2.722229 -4.84161,-2.578681 z m -51.78509,58.023609 c -8.240415,0 -30.045174,2.5098 -36.890936,14.36694 l -35.785785,61.94098 c -3.365403,5.82896 -11.817246,9.09869 -17.94552,6.31514 -3.45488,-1.56918 -4.991814,-4.43314 -2.841813,-8.15705 1.240871,-2.14934 4.916133,-6.62627 5.683626,-9.84109 0.610124,-2.55553 -3.184483,-5.10474 -5.157364,-5.10474 -4.243398,0 -6.055218,0.0551 -8.946447,2.47343 -3.247641,2.71618 -3.779836,8.74941 -3.736457,12.20927 0.09449,7.53657 7.839646,11.39815 15.314212,12.36714 7.938883,1.02929 27.358306,0.0241 34.78589,-12.84078 l 34.364879,-59.62543 c 2.523967,-4.37159 10.05621,-8.68332 20.787335,-8.68332 1.98847,0 2.41639,-0.70451 2.4208,-2.15767 0.005,-1.44844 -0.22588,-3.26282 -2.05242,-3.26282 z"
       id="path3535"
       style="fill:#5f8dd3;stroke:none" />
  </g>
</svg>
