<?xml version="1.0" encoding="UTF-8" standalone="no"?>
<!-- Created with Inkscape (http://www.inkscape.org/) -->

<svg
   xmlns:dc="http://purl.org/dc/elements/1.1/"
   xmlns:cc="http://creativecommons.org/ns#"
   xmlns:rdf="http://www.w3.org/1999/02/22-rdf-syntax-ns#"
   xmlns:svg="http://www.w3.org/2000/svg"
   xmlns="http://www.w3.org/2000/svg"
   xmlns:sodipodi="http://sodipodi.sourceforge.net/DTD/sodipodi-0.dtd"
   xmlns:inkscape="http://www.inkscape.org/namespaces/inkscape"
   width="236.15977"
   height="236.15977"
   id="svg2"
   version="1.1"
   inkscape:version="0.48.2 r9819"
   sodipodi:docname="logo.svg">
  <defs
     id="defs4" />
  <sodipodi:namedview
     id="base"
     pagecolor="#ffffff"
     bordercolor="#666666"
     borderopacity="1.0"
     inkscape:pageopacity="0.0"
     inkscape:pageshadow="2"
     inkscape:zoom="2.8"
     inkscape:cx="175.62735"
     inkscape:cy="74.527516"
     inkscape:document-units="px"
     inkscape:current-layer="layer1"
     showgrid="false"
     fit-margin-top="10"
     fit-margin-left="10"
     fit-margin-right="10"
     fit-margin-bottom="10"
     inkscape:window-width="1440"
     inkscape:window-height="852"
     inkscape:window-x="1"
     inkscape:window-y="0"
     inkscape:window-maximized="0" />
  <metadata
     id="metadata7">
    <rdf:RDF>
      <cc:Work
         rdf:about="">
        <dc:format>image/svg+xml</dc:format>
        <dc:type
           rdf:resource="http://purl.org/dc/dcmitype/StillImage" />
        <dc:title></dc:title>
      </cc:Work>
    </rdf:RDF>
  </metadata>
  <g
     inkscape:label="Ebene 1"
     inkscape:groupmode="layer"
     id="layer1"
     transform="translate(812.34328,-201.46922)">
    <path
       style="font-size:631.70758057px;font-style:normal;font-variant:normal;font-weight:bold;font-stretch:normal;line-height:125%;letter-spacing:0px;word-spacing:0px;opacity:0.5;fill:#3771c8;fill-opacity:1;stroke:none;font-family:Arial;-inkscape-font-specification:Arial Bold"
       d="m -691.66988,216.65625 c -58.25783,0 -105.48637,47.22854 -105.48637,105.48637 0,58.25783 47.22854,105.48637 105.48637,105.48637 58.25783,0 105.48637,-47.22854 105.48637,-105.48637 0,-58.25783 -47.22854,-105.48637 -105.48637,-105.48637 z m 0,25.67188 c 2.01879,0 4.02007,0.0809 6.00122,0.22813 l 0,125.22722 24.233,0 0,-45.88653 c -4e-5,-7.70509 0.72077,-13.51445 2.15834,-17.42459 1.49498,-3.96751 3.82127,-6.92389 6.98386,-8.879 3.16252,-1.95497 6.75778,-2.93034 10.78291,-2.93042 3.50751,8e-5 6.4122,0.77258 8.71231,2.32503 2.35746,1.49511 4.00197,3.53658 4.92203,6.12407 0.91996,2.5876 1.37742,8.68177 1.37747,18.28441 l 0,48.38703 0.30708,0 c -14.42567,20.65624 -38.37161,34.17362 -65.47822,34.17362 -15.09372,0 -29.20832,-4.18763 -41.24523,-11.46724 9.39337,0.95829 17.23542,-0.2018 23.51356,-3.46562 8.26383,-4.29621 13.28802,-10.50093 15.082,-18.61783 1.64638,-7.44973 0.41492,-13.8102 -3.69373,-19.09158 -4.17827,-5.23838 -12.38427,-10.70263 -24.61904,-16.38054 -12.17774,-5.66518 -19.17619,-9.51819 -21.00427,-11.55498 -1.34256,-1.52117 -1.83386,-3.11376 -1.4652,-4.78168 0.42999,-1.94576 1.69945,-3.3223 3.799,-4.14119 3.12463,-1.11697 7.85959,-0.98111 14.20467,0.42115 5.03019,1.11178 8.6859,2.88852 10.96712,5.31686 2.33825,2.4411 3.60654,5.48937 3.81658,9.15099 l 23.6276,0.93878 c -0.57869,-8.233 -3.46416,-14.99836 -8.65087,-20.28482 -5.1869,-5.28631 -14.00902,-9.30093 -26.47031,-12.05509 -13.09019,-2.89296 -23.33116,-2.41869 -30.71676,1.43011 -7.38569,3.84899 -11.92123,9.61217 -13.61682,17.28421 -1.87995,8.50613 0.25027,15.9474 6.39604,22.32034 4.43993,4.59658 15.9144,11.12676 34.42806,19.5917 3.96388,1.86738 6.42395,3.48344 7.3787,4.86065 0.88513,1.42017 1.1301,3.02018 0.73699,4.79922 -0.57756,2.61298 -2.09458,4.46453 -4.55357,5.55376 -3.63545,1.52897 -8.57063,1.60515 -14.80126,0.22812 -5.65909,-1.25069 -9.79574,-3.39253 -12.42358,-6.42237 -2.61561,-3.0854 -3.93558,-7.01442 -3.95693,-11.80063 l -10.33546,-0.72824 c -3.99918,-9.50916 -6.21178,-19.95547 -6.21178,-30.91856 0,-44.08102 35.73347,-79.81449 79.81449,-79.81449 z m 30.23422,5.93105 c 13.53412,5.54381 25.20904,14.69289 33.82268,26.25971 -1.85994,-0.26629 -3.7902,-0.40355 -5.79067,-0.40359 -10.86775,9e-5 -20.21189,4.57073 -28.03201,13.71331 l 0,-39.56943 z"
       id="path3004"
       inkscape:connector-curvature="0" />
    <path
       inkscape:connector-curvature="0"
       id="path3144"
       d="m -696.85691,211.46922 c -58.25783,0 -105.48637,47.22854 -105.48637,105.48637 0,58.25783 47.22854,105.48637 105.48637,105.48637 58.25783,0 105.48637,-47.22854 105.48637,-105.48637 0,-58.25783 -47.22854,-105.48637 -105.48637,-105.48637 z m 0,25.67188 c 2.01879,0 4.02007,0.0809 6.00122,0.22813 l 0,125.22722 24.233,0 0,-45.88653 c -4e-5,-7.70509 0.72077,-13.51445 2.15834,-17.42459 1.49498,-3.96751 3.82127,-6.92389 6.98386,-8.879 3.16252,-1.95497 6.75778,-2.93034 10.78291,-2.93042 3.50751,8e-5 6.4122,0.77258 8.71231,2.32503 2.35746,1.49511 4.00197,3.53658 4.92203,6.12407 0.91996,2.5876 1.37742,8.68177 1.37747,18.28441 l 0,48.38703 0.30708,0 c -14.42567,20.65624 -38.37161,34.17362 -65.47822,34.17362 -15.09372,0 -29.20832,-4.18763 -41.24523,-11.46724 9.39337,0.95829 17.23542,-0.2018 23.51356,-3.46562 8.26383,-4.29621 13.28802,-10.50093 15.082,-18.61783 1.64638,-7.44973 0.41492,-13.8102 -3.69373,-19.09158 -4.17827,-5.23838 -12.38427,-10.70263 -24.61904,-16.38054 -12.17774,-5.66518 -19.17619,-9.51819 -21.00427,-11.55498 -1.34256,-1.52117 -1.83386,-3.11376 -1.4652,-4.78168 0.42999,-1.94576 1.69945,-3.3223 3.799,-4.14119 3.12463,-1.11697 7.85959,-0.98111 14.20467,0.42115 5.03019,1.11178 8.6859,2.88852 10.96712,5.31686 2.33825,2.4411 3.60654,5.48937 3.81658,9.15099 l 23.6276,0.93878 c -0.57869,-8.233 -3.46416,-14.99836 -8.65087,-20.28482 -5.1869,-5.28631 -14.00902,-9.30093 -26.47031,-12.05509 -13.09019,-2.89296 -23.33116,-2.41869 -30.71676,1.43011 -7.38569,3.84899 -11.92123,9.61217 -13.61682,17.28421 -1.87995,8.50613 0.25027,15.9474 6.39604,22.32034 4.43993,4.59658 15.9144,11.12676 34.42806,19.5917 3.96388,1.86738 6.42395,3.48344 7.3787,4.86065 0.88513,1.42017 1.1301,3.02018 0.73699,4.79922 -0.57756,2.61298 -2.09458,4.46453 -4.55357,5.55376 -3.63545,1.52897 -8.57063,1.60515 -14.80126,0.22812 -5.65909,-1.25069 -9.79574,-3.39253 -12.42358,-6.42237 -2.61561,-3.0854 -3.93558,-7.01442 -3.95693,-11.80063 l -10.33546,-0.72824 c -3.99918,-9.50916 -6.21178,-19.95547 -6.21178,-30.91856 0,-44.08102 35.73347,-79.81449 79.81449,-79.81449 z m 30.23422,5.93105 c 13.53412,5.54381 25.20904,14.69289 33.82268,26.25971 -1.85994,-0.26629 -3.7902,-0.40355 -5.79067,-0.40359 -10.86775,9e-5 -20.21189,4.57073 -28.03201,13.71331 l 0,-39.56943 z"
       style="font-size:631.70758057px;font-style:normal;font-variant:normal;font-weight:bold;font-stretch:normal;line-height:125%;letter-spacing:0px;word-spacing:0px;opacity:0.5;fill:#3771c8;fill-opacity:1;stroke:none;font-family:Arial;-inkscape-font-specification:Arial Bold" />
  </g>
</svg>
