<?xml version="1.0" encoding="UTF-8" standalone="no"?>
<!-- Created with Inkscape (http://www.inkscape.org/) -->

<svg
   xmlns:dc="http://purl.org/dc/elements/1.1/"
   xmlns:cc="http://creativecommons.org/ns#"
   xmlns:rdf="http://www.w3.org/1999/02/22-rdf-syntax-ns#"
   xmlns:svg="http://www.w3.org/2000/svg"
   xmlns="http://www.w3.org/2000/svg"
   version="1.1"
   width="311.23032"
   height="202.15717"
   id="svg2">
  <defs
     id="defs4">
    <filter
       color-interpolation-filters="sRGB"
       id="filter3324">
      <feGaussianBlur
         result="result8"
         stdDeviation="4"
         id="feGaussianBlur3326" />
      <feOffset
         result="result11"
         dy="4"
         dx="4"
         id="feOffset3328" />
      <feComposite
         in2="result11"
         operator="in"
         in="SourceGraphic"
         result="result6"
         id="feComposite3330" />
      <feFlood
         flood-color="rgb(0,0,0)"
         flood-opacity="1"
         in="result6"
         result="result10"
         id="feFlood3332" />
      <feBlend
         in2="result10"
         mode="normal"
         in="result6"
         result="result12"
         id="feBlend3334" />
      <feComposite
         in2="SourceGraphic"
         operator="in"
         result="result2"
         id="feComposite3336" />
    </filter>
  </defs>
  <metadata
     id="metadata7">
    <rdf:RDF>
      <cc:Work
         rdf:about="">
        <dc:format>image/svg+xml</dc:format>
        <dc:type
           rdf:resource="http://purl.org/dc/dcmitype/StillImage" />
        <dc:title></dc:title>
      </cc:Work>
    </rdf:RDF>
  </metadata>
  <g
     id="layer3"
     style="display:inline">
    <path
       d="m 157.47814,56.173741 c -4.43102,0.18457 -10.37474,1.88526 -11.84089,4.420597 L 65.85505,198.55708 c -2.068708,3.5773 14.343869,2.22747 15.629968,0 l 45.574252,-78.93924 c 4.2689,0 12.8505,-0.97354 15.99835,0 3.65214,1.12949 3.80594,3.58338 1.89454,6.89403 l -36.73306,63.57239 c -7.11923,12.33086 22.5438,12.29819 33.52287,9.0517 7.09665,-2.09848 14.05916,-6.13722 17.36663,-9.20957 8.28719,-7.69791 12.04707,-16.0482 3.05231,-16.20886 -8.23773,-0.14651 -11.11405,5.64338 -13.10391,10.63048 -6.00741,15.05597 -31.77734,17.12994 -26.04995,7.20979 l 35.94367,-62.20412 c 3.53388,-6.1208 -1.42965,-10.63149 -7.94655,-13.36704 -4.2721,-1.79316 -16.10357,-1.78929 -20.78733,-1.78929 l 32.10291,-55.444928 c 1.13894,-1.972714 -1.39526,-2.722229 -4.84161,-2.578681 z m -51.78509,58.023609 c -8.240415,0 -30.045174,2.5098 -36.890936,14.36694 l -35.785785,61.94098 c -3.365403,5.82896 -11.817246,9.09869 -17.94552,6.31514 -3.45488,-1.56918 -4.991814,-4.43314 -2.841813,-8.15705 1.240871,-2.14934 4.916133,-6.62627 5.683626,-9.84109 0.610124,-2.55553 -3.184483,-5.10474 -5.157364,-5.10474 -4.2433977,0 -6.0552177,0.0551 -8.9464465,2.47343 -3.24764178,2.71618 -3.77983619,8.74941 -3.73645708,12.20927 0.09449131,7.53657 7.83964518,11.39815 15.31421158,12.36714 7.938883,1.02929 27.358306,0.0241 34.78589,-12.84078 l 34.364879,-59.62543 c 2.523967,-4.37159 10.05621,-8.68332 20.787335,-8.68332 1.98847,0 2.41639,-0.70451 2.4208,-2.15767 0.005,-1.44844 -0.22588,-3.26282 -2.05242,-3.26282 z"
       id="path3025"
       style="fill:#3771c8;stroke:none;filter:url(#filter3324)" />
  </g>
</svg>
