<?xml version="1.0" encoding="UTF-8" standalone="no"?>
<!-- Created with Inkscape (http://www.inkscape.org/) -->

<svg
   xmlns:dc="http://purl.org/dc/elements/1.1/"
   xmlns:cc="http://creativecommons.org/ns#"
   xmlns:rdf="http://www.w3.org/1999/02/22-rdf-syntax-ns#"
   xmlns:svg="http://www.w3.org/2000/svg"
   xmlns="http://www.w3.org/2000/svg"
   xmlns:sodipodi="http://sodipodi.sourceforge.net/DTD/sodipodi-0.dtd"
   xmlns:inkscape="http://www.inkscape.org/namespaces/inkscape"
   width="187.30408"
   height="164.92438"
   id="svg2"
   version="1.1"
   inkscape:version="0.48.2 r9819"
   sodipodi:docname="logo.svg">
  <defs
     id="defs4" />
  <sodipodi:namedview
     id="base"
     pagecolor="#bebebe"
     bordercolor="#666666"
     borderopacity="1.0"
     inkscape:pageopacity="1"
     inkscape:pageshadow="2"
     inkscape:zoom="2.9407931"
     inkscape:cx="85.6983"
     inkscape:cy="146.41191"
     inkscape:document-units="px"
     inkscape:current-layer="layer3"
     showgrid="false"
     showguides="false"
     inkscape:guide-bbox="true"
     inkscape:window-width="1440"
     inkscape:window-height="852"
     inkscape:window-x="1"
     inkscape:window-y="0"
     inkscape:window-maximized="0"
     fit-margin-top="10"
     fit-margin-left="10"
     fit-margin-right="10"
     fit-margin-bottom="10"
     showborder="false">
    <sodipodi:guide
       orientation="0,1"
       position="-109.06707,157.91072"
       id="guide2985" />
    <sodipodi:guide
       orientation="0,1"
       position="-109.06707,207.91072"
       id="guide2987" />
    <sodipodi:guide
       orientation="0,1"
       position="-109.06707,7.9107096"
       id="guide2989" />
    <sodipodi:guide
       orientation="-0.8660254,0.5"
       position="-109.06707,177.91072"
       id="guide2991" />
    <sodipodi:guide
       orientation="-0.8660254,0.5"
       position="-109.06707,247.91072"
       id="guide2993" />
    <sodipodi:guide
       orientation="-0.8660254,0.5"
       position="-109.06707,127.91072"
       id="guide2995" />
    <sodipodi:guide
       orientation="-0.8660254,0.5"
       position="-109.06707,57.91071"
       id="guide2997" />
    <sodipodi:guide
       orientation="-0.8660254,0.5"
       position="-109.06707,297.91072"
       id="guide2999" />
    <sodipodi:guide
       orientation="-0.8660254,0.5"
       position="-109.06707,7.9107096"
       id="guide3001" />
    <sodipodi:guide
       orientation="0,1"
       position="-109.06707,57.91071"
       id="guide3003" />
    <sodipodi:guide
       orientation="0,1"
       position="-109.06707,167.91072"
       id="guide3005" />
    <sodipodi:guide
       orientation="-0.8660254,0.5"
       position="-109.06707,367.91072"
       id="guide3007" />
    <sodipodi:guide
       orientation="-0.8660254,0.5"
       position="-109.06707,417.91072"
       id="guide3009" />
    <sodipodi:guide
       orientation="-0.8660254,0.5"
       position="-109.06707,487.91072"
       id="guide3011" />
    <sodipodi:guide
       orientation="-0.8660254,0.5"
       position="-109.06707,537.91072"
       id="guide3013" />
    <sodipodi:guide
       orientation="0,1"
       position="-461.06707,23.91071"
       id="guide3019" />
  </sodipodi:namedview>
  <metadata
     id="metadata7">
    <rdf:RDF>
      <cc:Work
         rdf:about="">
        <dc:format>image/svg+xml</dc:format>
        <dc:type
           rdf:resource="http://purl.org/dc/dcmitype/StillImage" />
        <dc:title></dc:title>
      </cc:Work>
    </rdf:RDF>
  </metadata>
  <g
     inkscape:label="Kontur"
     inkscape:groupmode="layer"
     id="layer1"
     transform="translate(-109.06707,-895.34849)"
     style="display:inline">
    <path
       style="font-size:medium;font-style:normal;font-variant:normal;font-weight:normal;font-stretch:normal;text-indent:0;text-align:start;text-decoration:none;line-height:normal;letter-spacing:normal;word-spacing:normal;text-transform:none;direction:ltr;block-progression:tb;writing-mode:lr-tb;text-anchor:start;baseline-shift:baseline;color:#000000;fill:#000000;fill-opacity:1;fill-rule:nonzero;stroke:none;stroke-width:0.54109031;marker:none;visibility:visible;display:inline;overflow:visible;enable-background:accumulate;font-family:Sans;-inkscape-font-specification:Sans"
       d="m 146.06245,971.4375 c -1.3e-4,-2.4e-4 0.0268,0.0199 0.0312,0.0312 -0.002,-0.01 1.2e-4,-0.0309 0,-0.0312 -6e-5,-1.8e-4 -0.0264,0.0108 -0.0312,0 z"
       id="path3192"
       inkscape:connector-curvature="0" />
  </g>
  <g
     inkscape:groupmode="layer"
     id="layer3"
     inkscape:label="Füllung"
     style="display:inline"
     transform="translate(-109.06707,-45.143481)">
    <path
       style="fill:#5f8dd3;stroke:none"
       d="m 276.47821,55.173383 c -4.43102,0.18457 -10.37474,1.88526 -11.84089,4.420597 l -79.78221,137.96274 c -2.0687,3.5773 14.34387,2.22747 15.62997,0 l 45.57426,-78.93924 c 4.2689,0 12.8505,-0.97354 15.99835,0 3.65214,1.12949 3.80594,3.58338 1.89454,6.89403 l -36.73306,63.57239 c -7.11923,12.33086 22.5438,12.29819 33.52287,9.0517 7.09665,-2.09848 14.05916,-6.13722 17.36663,-9.20957 8.28719,-7.69791 12.04707,-16.0482 3.05231,-16.20886 -8.23773,-0.14651 -11.11405,5.64338 -13.10391,10.63048 -6.00741,15.05597 -31.77734,17.12994 -26.04995,7.20979 l 35.94367,-62.20412 c 3.53388,-6.1208 -1.42965,-10.63149 -7.94655,-13.36704 -4.2721,-1.79316 -16.10357,-1.78929 -20.78733,-1.78929 l 32.10291,-55.444926 c 1.13894,-1.972714 -1.39526,-2.722229 -4.84161,-2.578681 z m -51.78509,58.023607 c -8.24042,0 -30.04518,2.5098 -36.89094,14.36694 l -35.78579,61.94098 c -3.3654,5.82896 -11.81724,9.09869 -17.94552,6.31514 -3.45488,-1.56918 -4.99181,-4.43314 -2.84181,-8.15705 1.24087,-2.14934 4.91613,-6.62627 5.68363,-9.84109 0.61012,-2.55553 -3.18449,-5.10474 -5.15737,-5.10474 -4.24339,0 -6.05521,0.0551 -8.94644,2.47343 -3.24765,2.71618 -3.77984,8.74941 -3.73646,12.20927 0.0945,7.53657 7.83964,11.39815 15.31421,12.36714 7.93888,1.02929 27.35831,0.0241 34.78589,-12.84078 l 34.36489,-59.62543 c 2.52396,-4.37159 10.05621,-8.68332 20.78733,-8.68332 1.98847,0 2.41639,-0.70451 2.4208,-2.15767 0.005,-1.44844 -0.22588,-3.26282 -2.05242,-3.26282 z"
       id="path3653"
       inkscape:connector-curvature="0"
       sodipodi:nodetypes="sssccsccsscscccccssccccsscscccscs" />
    <path
       style="fill:#ffffff;stroke:none"
       d="m 280.56982,55.628651 c 0.0791,0.321041 0.003,0.686941 -0.25,1.125 l -32.09375,55.437499 0.98392,0.99185 32.10983,-55.429349 c 0.58101,-1.006351 0.21423,-1.711467 -0.75,-2.125 z m -55.125,57.718749 c 0.26162,0.625 0.31492,1.42462 0.3125,2.125 -0.004,1.45316 -0.44903,2.15625 -2.4375,2.15625 -10.73112,0 -18.25729,4.31591 -20.78125,8.6875 l -34.375,59.625 c -7.42758,12.86488 -26.84237,13.84179 -34.78125,12.8125 -4.30098,-0.55757 -8.68525,-2.06537 -11.65625,-4.6875 2.92106,3.23963 7.83682,5.06272 12.65625,5.6875 7.93888,1.02929 27.35367,0.0524 34.78125,-12.8125 l 34.375,-59.625 c 2.52396,-4.37159 10.05013,-8.6875 20.78125,-8.6875 1.98847,0 2.43309,-0.70309 2.4375,-2.15625 0.004,-1.21848 -0.17332,-2.68659 -1.3125,-3.125 z m 30.28125,3.84375 c -3.65785,0.0475 -7.98819,0.4375 -10.65625,0.4375 l -45.59375,78.9375 c -1.0211,1.76851 -11.54103,2.95839 -14.8125,1.59375 0.10329,2.79115 14.60678,1.4945 15.8125,-0.59375 l 45.59375,-78.9375 c 4.2689,0 12.85215,-0.97354 16,0 0.66784,0.20654 1.21361,0.4265 1.65625,0.71875 -0.47025,-0.74351 -1.32181,-1.30605 -2.65625,-1.71875 -1.18044,-0.36508 -3.14904,-0.46602 -5.34375,-0.4375 z m 20.34375,1.4375 c 2.14098,2.3914 2.85786,5.28438 0.875,8.71875 l -35.9375,62.21875 c -1.36344,2.36156 -0.92124,4.01121 0.59375,5 -0.60123,-0.98922 -0.57055,-2.30813 0.40625,-4 l 35.9375,-62.21875 c 2.26844,-3.92901 1.02259,-7.16028 -1.875,-9.71875 z m 8.875,55 c 1.72568,2.93562 -1.91133,8.80192 -7.84375,14.3125 -3.30747,3.07235 -10.2471,7.08902 -17.34375,9.1875 -8.14035,2.40709 -26.55007,3.04334 -32.625,-1.8125 4.67748,5.93679 24.9612,5.37437 33.625,2.8125 7.09665,-2.09848 14.03628,-6.11515 17.34375,-9.1875 6.73334,-6.25455 10.50082,-12.93925 6.84375,-15.3125 z m -149.78125,0.59375 c 0.61818,0.79335 0.96717,1.68411 0.75,2.59375 -0.7675,3.21482 -4.44663,7.69441 -5.6875,9.84375 -1.71823,2.97606 -1.05715,5.40686 1.03125,7.0625 -1.24467,-1.57671 -1.43392,-3.633 -0.0312,-6.0625 1.24087,-2.14934 4.92001,-6.62893 5.6875,-9.84375 0.31596,-1.3234 -0.56818,-2.62689 -1.75,-3.59375 z"
       id="path3602"
       inkscape:connector-curvature="0"
       sodipodi:nodetypes="ccccccccscccccccsccscccccscssccccccccsscssccscccccc" />
    <path
       style="fill:#2c5aa0;stroke:none"
       d="m 276.47562,55.15987 c -4.43102,0.18457 -10.3776,1.902163 -11.84375,4.4375 l -79.78125,137.96875 c -0.42625,0.73709 -0.0365,1.2396 0.8125,1.59375 -0.007,-0.18608 0.0582,-0.37017 0.1875,-0.59375 L 265.63187,60.59737 c 1.46615,-2.535337 7.41273,-4.25293 11.84375,-4.4375 1.68825,-0.07032 3.16784,0.07165 4.09375,0.46875 -0.27712,-1.124707 -2.41269,-1.580422 -5.09375,-1.46875 z m -51.78125,58.03125 c -8.24041,0 -30.06049,2.51786 -36.90625,14.375 l -35.78125,61.9375 c -3.3654,5.82896 -11.80923,9.09605 -17.9375,6.3125 -0.69383,-0.31513 -1.28771,-0.6777 -1.8125,-1.09375 0.66315,0.84005 1.6116,1.54831 2.8125,2.09375 6.12827,2.78355 14.5721,-0.48354 17.9375,-6.3125 l 35.78125,-61.9375 c 6.84576,-11.85714 28.66584,-14.375 36.90625,-14.375 0.28998,0 0.53501,0.0735 0.75,0.15625 -0.27943,-0.66755 -0.80667,-1.15625 -1.75,-1.15625 z m 24.50078,-0.008 1.03047,1.00751 c 4.68376,0 16.50915,-0.0119 20.78125,1.78125 2.32644,0.97655 4.44789,2.20352 6.0625,3.625 -1.675,-1.86253 -4.21136,-3.42819 -7.0625,-4.625 -3.9113,-1.64172 -15.51421,-1.7776 -20.81172,-1.78876 z m 15.56172,7.19501 c 0.78657,1.28785 0.38902,3.04391 -0.8125,5.125 l -36.71875,63.59375 c -1.84073,3.18823 -1.21221,5.52541 0.90625,7.21875 -1.24998,-1.58652 -1.40755,-3.61842 0.0937,-6.21875 l 36.71875,-63.59375 c 1.55301,-2.6899 1.7549,-4.81712 -0.1875,-6.125 z m -133,52.34375 c -4.2434,0 -6.04627,0.0504 -8.9375,2.46875 -3.24764,2.71618 -3.79338,8.75889 -3.75,12.21875 0.0401,3.19991 1.46403,5.72145 3.65625,7.65625 -1.60928,-1.78479 -2.62268,-3.97909 -2.65625,-6.65625 -0.0434,-3.45986 0.50236,-9.50257 3.75,-12.21875 2.89123,-2.41833 4.6941,-2.46875 8.9375,-2.46875 0.95121,0 2.30594,0.59982 3.40625,1.5 -1.11852,-1.43549 -3.13561,-2.5 -4.40625,-2.5 z m 149.40625,0 c -8.23773,-0.14651 -11.10389,5.6379 -13.09375,10.625 -4.5773,11.47179 -20.61977,15.38356 -25.46875,12.21875 2.92403,4.81104 21.48589,1.26945 26.46875,-11.21875 1.98986,-4.9871 4.85602,-10.77151 13.09375,-10.625 1.66447,0.0297 2.90691,0.34042 3.75,0.875 -0.69499,-1.1441 -2.22022,-1.82981 -4.75,-1.875 z"
       id="path3604"
       inkscape:connector-curvature="0"
       sodipodi:nodetypes="scccccscsscccccccscsccccccccccccccscscscscscscsccc" />
  </g>
</svg>
